<?xml version="1.0" standalone="no"?><!DOCTYPE svg PUBLIC "-//W3C//DTD SVG 1.1//EN" "http://www.w3.org/Graphics/SVG/1.1/DTD/svg11.dtd"><svg t="1684307542576" class="icon" viewBox="0 0 1024 1024" version="1.1" xmlns="http://www.w3.org/2000/svg" p-id="1938" xmlns:xlink="http://www.w3.org/1999/xlink" width="200" height="200"><path d="M236.9 331.1s-68.8 1.1-67.7-69.8c1.1-70.9 108-115.1 228.5-119.5 165.3-6.1 284.9 15.3 284.5 58.2-0.5 52.5-18.3 87.7-43.4 112.3 0 0 24.3 22 24.3 43.1v454.8s-6.3 39.1-41.3 43.4c-32.9 4-351.8 1.4-389 1-2.5 0-4.9-0.6-7.1-1.8-10.9-5.8-43.3-25.5-42.9-56.4 0.4-28.6 0-402 0-402s-5.2-52.7 54.1-63.3z" fill="#B38252" p-id="1939"></path><path d="M688.5 156.4s-20.6-28.6-58.7-34.9-37.3 17.5-71.4 12.7-55.5-30.1-88.9-30.1-46 36.5-78.5 36.5-63.2-19.8-96.2-10.3-19.6 53.9-37.8 69c-18.2 15.1-66.6 15.9-69 48.4s54.7 54.7 52.4 86.5-42.8 41.3-44.4 76.2c-1.6 34.9 43.6 34.9 41.3 73s-45.2 55.5-45.2 86.5 38.1 44.4 38.1 84.1-43.8 50-42.1 84.1c1.7 34.1 49.3 31.7 50.8 57.9 1.6 26.2-7.1 23.8 4 45.2 11.1 21.4 110.3 11.1 110.3 11.1l335.3-695.9z" fill="#84A528" p-id="1940"></path><path d="M741.1 854.7H280.4c-18.1 0-33-14.8-33-33v-616c0-24.8 20.3-45 45-45h408.2c26.1 0 47.5 21.4 47.5 47.5v639.5c0 3.9-3.2 7-7 7z" fill="#E17D61" p-id="1941"></path><path d="M759.6 854.7H307.5c-20.4 0-37-16.7-37-37V219.5c0-32.3 26.4-58.8 58.8-58.8h382.9c32.4 0 58.9 26.5 58.9 58.9v623.6c-0.1 6.3-5.2 11.5-11.5 11.5z" fill="#F6B71E" p-id="1942"></path><path d="M356.2 330s-68.8 1.1-67.7-69.8 108-115.1 228.5-119.5c165.3-6.1 284.9 28 284.5 70.9-0.5 52.3-18.2 74.8-43.1 99.4-0.1 0.1-0.2 0.3 0 0.5 2.5 2.3 24.1 23 24.1 42.9v454.8c-0.1 0.5-6.6 39.2-41.3 43.4-33.1 4-357.4 2.5-391.8 2.2-2.1 0-4-0.8-5.9-1.2-19.3-3.9-40.4-24.9-41.2-44.4-1.1-28.6 0-415.6 0-415.6s-5.4-53.1 53.9-63.6z" fill="#BC914F" p-id="1943"></path><path d="M804.8 333.3c-0.2-0.2-0.2-0.6 0-0.8 24.8-24.4 46.6-34.5 42.9-86.5-3.1-44.4-98.6-70.9-259.2-70.9-120.6 0-227.4 23.3-228.5 94.1-1.1 70.9 74 63.5 74 63.5-59.2 10.6-60.3 69.8-60.3 69.8s0.3 379.3 0 408.3c-0.3 23.4 24.9 42.1 41 45.7 2.5 0.6 5 1.2 7.6 1.3 330.7 4.2 330.7 1.6 365.1-2.5 34.5-4.2 41.1-42.6 41.3-43.4V376.1c0-19.6-20.8-39.8-23.9-42.8z" fill="#FFF6ED" p-id="1944"></path><path d="M401.81 426.36a4.2 14.3 40.414 1 0 18.542-21.776 4.2 14.3 40.414 1 0-18.541 21.775z m191.06-22.285a14.3 4.2 65.686 1 0 7.655-3.458 14.3 4.2 65.686 1 0-7.655 3.458z m-71.404-53.195a12.4 3.5 17.903 1 0 2.152-6.66 12.4 3.5 17.903 1 0-2.152 6.66z m-50.151-16.143a4.7 15.9 40.414 1 0 20.617-24.212 4.7 15.9 40.414 1 0-20.617 24.212zM575.5 247.7a4.2 14.3 0 1 0 8.4 0 4.2 14.3 0 1 0-8.4 0z m128.534-6.962a14.3 4.2 52.617 1 0 6.674-5.1 14.3 4.2 52.617 1 0-6.674 5.1z m-37.752 161.341a4.2 14.3 35.065 1 0 16.43-23.41 4.2 14.3 35.065 1 0-16.43 23.41z m109.539-11.011a13.9 5.3 48.729 1 0 7.967-6.992 13.9 5.3 48.729 1 0-7.967 6.992z m-155.695 50.626a3.3 11.2 9.079 1 0 3.535-22.12 3.3 11.2 9.079 1 0-3.535 22.12z" fill="#FFE085" p-id="1945"></path><path d="M429.8 495.6a4.2 14.3 0 1 0 8.4 0 4.2 14.3 0 1 0-8.4 0z m41.295-92.913a4.2 14.3 30 1 0 14.3-24.768 4.2 14.3 30 1 0-14.3 24.768z m3.475 54.689a3.5 11.8 71.823 1 0 22.423-7.362 3.5 11.8 71.823 1 0-22.423 7.362z m20.188-203.728a17.8 5.3 65.686 1 0 9.66-4.365 17.8 5.3 65.686 1 0-9.66 4.365z m63.52 189.595a11.3 3.4 65.686 1 0 6.197-2.8 11.3 3.4 65.686 1 0-6.197 2.8z m37.666-111.915a4.2 14.3 35.065 1 0 16.431-23.41 4.2 14.3 35.065 1 0-16.43 23.41z" fill="#FBDFBA" p-id="1946"></path><path d="M746.675 303.446a4.2 14.3 36.489 1 0 17.007-22.993 4.2 14.3 36.489 1 0-17.007 22.993z" fill="#FFE085" p-id="1947"></path><path d="M722.551 363.297a4.2 14.3 31.138 1 0 14.79-24.48 4.2 14.3 31.138 1 0-14.79 24.48z m-52.715-69.503a14.3 4.2 55.812 1 0 6.949-4.72 14.3 4.2 55.812 1 0-6.949 4.72z" fill="#FBDFBA" p-id="1948"></path></svg>