<?xml version="1.0" standalone="no"?><!DOCTYPE svg PUBLIC "-//W3C//DTD SVG 1.1//EN" "http://www.w3.org/Graphics/SVG/1.1/DTD/svg11.dtd"><svg t="1684307506059" class="icon" viewBox="0 0 1024 1024" version="1.1" xmlns="http://www.w3.org/2000/svg" p-id="2767" xmlns:xlink="http://www.w3.org/1999/xlink" width="200" height="200"><path d="M896.6 518.4c18.8-9.5 31.7-29.1 31.4-51.7-0.4-30.1-24.7-55.1-54.8-56.2-32.5-1.2-59.3 24.8-59.3 57 0 2.3 0.2 4.5 0.4 6.7h-88.2v83.7h83.5c3.5 0 6.1 3.2 5.4 6.6-0.7 3.6-1.1 7.4-1.1 11.3 0 32.3 26.8 58.3 59.3 57 30.1-1.2 54.4-26.1 54.8-56.2 0.3-22.6-12.6-42.2-31.4-51.7-2.6-1.4-2.6-5.2 0-6.5z" fill="#C3A895" p-id="2768"></path><path d="M884.8 512.2c16.6-8.4 27.8-25.9 26.9-46-1.2-25.1-21.7-45.4-46.8-46.4-27.9-1.1-50.8 21.2-50.8 48.8v0.7c0 2.8-2.2 5.1-5 5.1h-68.7c-2.8 0-5 2.2-5 5v60.8c0 3.2 2.6 5.8 5.8 5.8h68.9c3.1 0 5.5 2.9 4.9 6-0.9 4.8-1.2 9.9-0.6 15.2 2.8 23.4 22.5 41.7 46 42.9 28.1 1.4 51.3-21 51.3-48.8 0-19.1-11-35.6-26.9-43.6-2.2-1.2-2.3-4.4 0-5.5z" fill="#FBCCAE" p-id="2769"></path><path d="M835.5 446a17.8 17.8 0 1 0 35.6 0 17.8 17.8 0 1 0-35.6 0z" fill="#FFF6ED" p-id="2770"></path><path d="M701.7 416h-29.9c-57.3 0-164.4-75.3-164.4-75.3-43.3-32.1-98.8-51.4-159.3-51.4-138.1 0-250 100.3-250 224s111.9 224 250 224c60.5 0 116.1-19.3 159.3-51.4 51.2-38.8 162.2-74.7 164.3-75.3h30c13.7 0 24.9-11.2 24.9-24.9V440.9c0-13.7-11.2-24.9-24.9-24.9z" fill="#D65C45" p-id="2771"></path><path d="M671.7 416c-57.3 0-164.4-75.3-164.4-75.3-43.3-32.1-98.8-51.4-159.3-51.4-138.1 0-250 100.3-250 224 0 42.6 13.3 82.4 36.3 116.3 45.4 41.5 108.6 67.3 178.5 67.3 60.5 0 116.1-19.3 159.3-51.4 51.2-38.8 162.2-74.7 164.3-75.3h30c13.7 0 24.9-11.2 24.9-24.9V416h-19.6z" fill="#F49042" p-id="2772"></path><path d="M157.2 494c-1.8 0-3.6-0.3-5.3-1-7.3-2.9-10.9-11.3-8-18.6 16.7-41.7 45.6-78.5 81.4-103.6 41.3-29 88.3-40.2 135.9-32.2 7.8 1.3 13.1 8.7 11.8 16.5-1.3 7.8-8.7 13.1-16.5 11.8-50.6-8.5-90.3 10.2-114.7 27.4-30.8 21.7-56.8 54.8-71.3 90.9-2.3 5.4-7.7 8.8-13.3 8.8z m300.1-105.6c-2 0-4.1-0.4-6-1.3-9.5-4.4-19.5-8.2-29.7-11.2-7.6-2.2-11.9-10.2-9.7-17.8 2.2-7.6 10.2-11.9 17.8-9.7 11.5 3.4 22.9 7.7 33.7 12.7 7.2 3.3 10.3 11.9 6.9 19-2.4 5.2-7.6 8.3-13 8.3z" fill="#FFE361" p-id="2773"></path></svg>